<?xml version="1.0" encoding="UTF-8"?>
<svg version="1.1" xmlns="http://www.w3.org/2000/svg" width="2000" height="1500">
<path d="M0 0 C660 0 1320 0 2000 0 C2000 495 2000 990 2000 1500 C1340 1500 680 1500 0 1500 C0 1005 0 510 0 0 Z " fill="#FEFEFE" transform="translate(0,0)"/>
<path d="M0 0 C21.39240928 -0.07009976 42.7847996 -0.12299294 64.17730045 -0.15543652 C74.11034549 -0.17090143 84.04331914 -0.19198381 93.97631836 -0.22631836 C102.63452704 -0.25623217 111.29268401 -0.27557774 119.95094293 -0.28226548 C124.53488118 -0.28617437 129.11867152 -0.29535305 133.70256233 -0.31719017 C138.01909922 -0.33758661 142.33542756 -0.34382742 146.65200806 -0.33932304 C148.23422314 -0.34014683 149.81644536 -0.34609371 151.3986187 -0.35761642 C153.56405968 -0.37261042 155.72872009 -0.36892909 157.8941803 -0.36076355 C159.70965158 -0.36491162 159.70965158 -0.36491162 161.56179905 -0.36914349 C167.60710421 0.27991253 172.61575925 2.73425224 177 7 C180.58502881 12.16630415 182.11598385 16.66478004 182.14717102 22.89346313 C182.15790398 24.36933899 182.15790398 24.36933899 182.16885376 25.87503052 C182.17154266 26.94832611 182.17423157 28.0216217 182.17700195 29.12744141 C182.18357315 30.26288391 182.19014435 31.39832642 182.19691467 32.56817627 C182.21663949 36.32930569 182.22830928 40.09039517 182.23828125 43.8515625 C182.24235678 45.13725506 182.2464323 46.42294762 182.25063133 47.74760056 C182.2693398 53.85263051 182.28390521 59.95764052 182.2922433 66.06269324 C182.30200141 73.08997858 182.32828684 80.11694773 182.36874419 87.14412177 C182.40265758 93.24593042 182.41439777 99.34760721 182.41844749 105.44950485 C182.42331053 108.03697222 182.43491634 110.62443628 182.45348549 113.21184158 C182.47790426 116.840212 182.47690614 120.4677635 182.4699707 124.09619141 C182.48918579 125.68791672 182.48918579 125.68791672 182.50878906 127.3117981 C182.457072 134.76595572 181.41244995 142.13390565 176.30847645 147.91639137 C170.62598677 153.24878475 164.53084805 155.37817347 156.81825256 155.36076355 C156.13031835 155.36332682 155.44238413 155.3658901 154.73360342 155.36853105 C152.44723895 155.3734404 150.16154692 155.35702419 147.87524414 155.34057617 C146.22891251 155.33972928 144.58257975 155.34020626 142.93624878 155.34190369 C138.4800939 155.34276264 134.02418243 155.32515312 129.568084 155.30418181 C124.90627741 155.28539831 120.24446493 155.28366325 115.58262634 155.28010559 C106.76068833 155.27079005 97.93886216 155.24618289 89.11697334 155.21605712 C79.07106871 155.18249786 69.02515868 155.16602326 58.97921193 155.15097082 C38.31941225 155.11963291 17.65971318 155.06688193 -3 155 C4.37380627 147.59716901 12.16057632 140.81953377 20.28125 134.25 C22.92147729 132.06498431 25.4672972 129.80828609 28 127.5 C32.29991791 123.58108748 36.75919547 119.90829131 41.28125 116.25 C44.77908151 113.35524289 48.11785404 110.30410461 51.47265625 107.24609375 C54.06962393 104.93812402 56.73404013 102.74444137 59.4375 100.5625 C64.19631641 96.71394946 68.70558796 92.65199839 73.20703125 88.5078125 C77.66747845 84.5027676 82.32100284 80.74681784 87 77 C83.24034086 71.94390667 78.80503283 68.27992584 73.89453125 64.35546875 C71.18012565 62.14657998 68.58281236 59.86036919 66 57.5 C62.60401318 54.40444804 59.13828469 51.44848793 55.5625 48.5625 C50.79003797 44.70291397 46.26890891 40.62800009 41.75390625 36.47265625 C38.16792716 33.25290481 34.43298508 30.24094824 30.68359375 27.21484375 C28.05291443 25.04367173 25.52057576 22.79758643 23 20.5 C18.64457741 16.53234158 14.1375435 12.79275545 9.5625 9.08203125 C6.31791013 6.44580198 3.12474786 3.77755365 0 1 C0 0.67 0 0.34 0 0 Z " fill="#313131" transform="translate(441,674)"/>
<path d="M0 0 C3.58221655 2.76641249 6.90340067 5.56627852 9.9375 8.9375 C10.45441406 9.43894531 10.97132813 9.94039062 11.50390625 10.45703125 C15.74262013 14.80953611 18.53516157 19.55562616 21.25 24.9375 C21.75623901 25.93390503 21.75623901 25.93390503 22.27270508 26.95043945 C29.42052634 41.65995078 29.85861518 62.57847721 24.8125 78.0625 C18.03786713 95.85064217 5.1641678 109.64871718 -12.16455078 117.56176758 C-32.33589292 126.25701154 -54.6017053 127.85072517 -75.20166016 119.68017578 C-94.52953882 111.49289559 -107.92379539 97.41080073 -116.01953125 78.15234375 C-121.90982627 59.99611602 -120.71245411 40.70548752 -112.453125 23.60546875 C-102.51545249 5.48517139 -86.62854273 -5.25856394 -67.1875 -11.4375 C-44.90428844 -16.94493285 -18.78931169 -13.31328235 0 0 Z " fill="#313131" transform="translate(1543.0625,680.0625)"/>
<path d="M0 0 C3.51045644 -0.08733329 7.02058229 -0.1429828 10.53189087 -0.18206787 C11.91446347 -0.19998579 13.29697048 -0.22449191 14.67929077 -0.25640869 C32.29461876 -0.64066058 47.85814559 4.19345011 60.79101562 16.42724609 C76.07748765 33.34361659 81.38031881 54.37880721 80.37744141 76.73583984 C80.01801289 81.78659188 78.92050321 86.35494282 77.20898438 91.10302734 C76.86867188 92.09302734 76.52835938 93.08302734 76.17773438 94.10302734 C70.70042505 108.6104953 61.2295926 119.30309608 47.52148438 126.35302734 C46.91111328 126.67037842 46.30074219 126.98772949 45.671875 127.31469727 C32.89066387 133.52415952 20.91553078 134.67744111 6.99804688 134.49365234 C5.48332308 134.48775175 3.96859105 134.48368306 2.45385742 134.48144531 C-3.08622679 134.46069908 -8.626135 134.40485551 -14.16601562 134.35302734 C-32.79039063 134.22927734 -32.79039063 134.22927734 -51.79101562 134.10302734 C-51.79101562 90.87302734 -51.79101562 47.64302734 -51.79101562 3.10302734 C-15.63721642 0.42496814 -15.63721642 0.42496814 0 0 Z " fill="#303030" transform="translate(1338.791015625,666.89697265625)"/>
<path d="M0 0 C15.68044515 0 15.68044515 0 20.1875 4.1875 C21.2526935 5.11657889 22.3233593 6.03940843 23.3984375 6.95703125 C23.9665918 7.45154785 24.53474609 7.94606445 25.12011719 8.45556641 C28.65956492 11.36342957 32.50510616 13.83534404 36.3125 16.375 C42.33045691 20.43520067 48.22834188 24.59667634 54 29 C62.13510851 35.20534167 70.56596506 40.94962012 79.05566406 46.65649414 C81.07461283 48.0515563 83.03676144 49.52757108 85 51 C85 34.5 85 18 85 1 C100.18 1 115.36 1 131 1 C131 43.9 131 86.8 131 131 C109.17533086 131 109.17533086 131 101.546875 125.18359375 C100.68026749 124.57960754 99.81365997 123.97562134 98.92079163 123.35333252 C96.16650599 121.42086611 93.46000055 119.43144459 90.75 117.4375 C88.85959516 116.09610196 86.96593312 114.75928276 85.0690918 113.42700195 C81.36716211 110.82170995 77.67982659 108.19780854 74.00341797 105.55664062 C67.72998614 101.06927357 61.30638632 96.84794789 54.8125 92.6875 C51.904375 90.810625 48.99625 88.93375 46 87 C46 101.85 46 116.7 46 132 C30.82 132 15.64 132 0 132 C0 88.44 0 44.88 0 0 Z " fill="#313131" transform="translate(739,670)"/>
<path d="M0 0 C7.76319231 4.50265154 10.90448344 11.34796479 15.0625 19.0625 C15.72421011 20.2744553 16.38690595 21.48587288 17.05053711 22.69677734 C18.41409467 25.18581002 19.77409383 27.67673614 21.13183594 30.16894531 C24.10549176 35.61687261 27.14719416 41.0265744 30.1875 46.4375 C31.34520596 48.50251791 32.50275796 50.56762213 33.66015625 52.6328125 C34.23137207 53.65149414 34.80258789 54.67017578 35.39111328 55.71972656 C37.71994038 59.87370878 40.04670728 64.02884303 42.37329102 68.18408203 C43.53896565 70.26588757 44.70481787 72.34759368 45.87084961 74.42919922 C48.81517227 79.68559519 51.75727226 84.94321461 54.6953125 90.203125 C55.88018557 92.32292939 57.06508122 94.44272116 58.25 96.5625 C58.82250488 97.58811035 59.39500977 98.6137207 59.98486328 99.67041016 C62.8448776 104.78332578 65.73136184 109.87820722 68.671875 114.9453125 C69.23245605 115.9137207 69.79303711 116.88212891 70.37060547 117.87988281 C71.43160299 119.70809251 72.49806636 121.53314453 73.57080078 123.35449219 C74.0398584 124.16305664 74.50891602 124.97162109 74.9921875 125.8046875 C75.61262939 126.86212158 75.61262939 126.86212158 76.24560547 127.94091797 C77.125 129.8125 77.125 129.8125 77.125 132.8125 C55.345 132.8125 33.565 132.8125 11.125 132.8125 C7.125 122.8125 7.125 122.8125 7.125 119.8125 C-5.085 119.8125 -17.295 119.8125 -29.875 119.8125 C-30.535 122.7825 -31.195 125.7525 -31.875 128.8125 C-32.535 130.1325 -33.195 131.4525 -33.875 132.8125 C-52.685 132.8125 -71.495 132.8125 -90.875 132.8125 C-90.12120974 129.04354872 -89.7184872 127.13084344 -88.01171875 123.9765625 C-87.62564453 123.25404297 -87.23957031 122.53152344 -86.84179688 121.78710938 C-86.41962891 121.01173828 -85.99746094 120.23636719 -85.5625 119.4375 C-84.64912957 117.7320974 -83.73639703 116.02635305 -82.82421875 114.3203125 C-82.34259277 113.42344727 -81.8609668 112.52658203 -81.36474609 111.60253906 C-78.83155403 106.85830456 -76.35599818 102.08417322 -73.875 97.3125 C-69.82362885 89.53680307 -65.75308465 81.77157669 -61.6640625 74.015625 C-58.38413624 67.79003248 -55.12736813 61.55252662 -51.875 55.3125 C-50.35592489 52.40007467 -48.83654411 49.48780922 -47.31689453 46.57568359 C-46.3930852 44.80533581 -45.46955664 43.03484146 -44.54638672 41.26416016 C-42.10057546 36.57674736 -39.63657203 31.89961842 -37.15332031 27.23193359 C-35.77165545 24.61690328 -34.41411503 21.98993246 -33.0546875 19.36328125 C-32.09987427 17.55420378 -31.14416653 15.7455981 -30.1875 13.9375 C-29.54639282 12.67933472 -29.54639282 12.67933472 -28.89233398 11.39575195 C-23.05910267 0.50534625 -12.1061816 -4.71981089 0 0 Z " fill="#323232" transform="translate(1203.875,669.1875)"/>
<path d="M0 0 C0 13.86 0 27.72 0 42 C-1.98 41.67 -3.96 41.34 -6 41 C-15.86922612 40.10943374 -24.445769 42.32960154 -32.3984375 48.37890625 C-38.79872991 54.85725101 -41.13481405 61.95278104 -41.25 70.8125 C-41.19489336 77.43907387 -40.76476146 81.82564425 -36.3125 86.9375 C-31.14352825 89.31243297 -26.21689193 88.28028451 -21 86.625 C-14.22388537 84.00999238 -8.27076361 79.99195148 -2.2109375 76.046875 C1 74 1 74 2 74 C2 91.49 2 108.98 2 127 C-10.42426502 132.32468501 -22.13456688 133.51131672 -35.5625 133.4375 C-36.85607422 133.45748047 -38.14964844 133.47746094 -39.48242188 133.49804688 C-51.53356681 133.4920062 -62.55960321 130.84019553 -73.25 125.25 C-74.25148071 124.73566406 -74.25148071 124.73566406 -75.27319336 124.2109375 C-81.09054946 121.12822395 -86.19081267 117.51365068 -91 113 C-91.62003906 112.4328125 -92.24007813 111.865625 -92.87890625 111.28125 C-97.01447779 107.06241192 -99.65913658 102.22264561 -102.3125 97 C-102.65039551 96.33548828 -102.98829102 95.67097656 -103.33642578 94.98632812 C-110.26334927 80.71861939 -110.7644256 61.10141474 -105.875 46.0625 C-98.33989875 25.94778994 -85.29390638 11.57779537 -65.82421875 2.5390625 C-47.05615532 -5.25441383 -18.85614847 -9.42807423 0 0 Z " fill="#313131" transform="translate(1683,671)"/>
<path d="M0 0 C0 12.54 0 25.08 0 38 C-3.135 37.505 -6.27 37.01 -9.5 36.5 C-24.49804712 33.69102165 -24.49804712 33.69102165 -39 36 C-39.07662768 38.3841059 -39.07662768 38.3841059 -38 41 C-35.51856637 42.56674459 -33.28050707 43.75643964 -30.625 44.9375 C-29.15572273 45.63430597 -27.68697391 46.33222726 -26.21875 47.03125 C-25.496875 47.36769531 -24.775 47.70414063 -24.03125 48.05078125 C-10.47419214 54.38609867 1.01610114 62.83374563 6.875 77.0625 C10.44926007 89.1894538 8.28905361 102.18441818 2.4375 113.125 C-4.84607102 124.52459395 -16.60039786 129.49658488 -29.25 132.8125 C-49.89953698 136.8010971 -74.90257613 135.26541682 -94 126 C-95 125 -95 125 -95.11352539 121.39819336 C-95.11336625 119.79540144 -95.10767063 118.1926044 -95.09765625 116.58984375 C-95.0962413 115.74780899 -95.09482635 114.90577423 -95.09336853 114.03822327 C-95.08775263 111.33794665 -95.07519748 108.63775172 -95.0625 105.9375 C-95.05748705 104.11132932 -95.05292379 102.28515734 -95.04882812 100.45898438 C-95.03777804 95.97262458 -95.02050279 91.48632616 -95 87 C-94.32267822 87.1853833 -93.64535645 87.3707666 -92.94750977 87.56176758 C-89.96558887 88.37666237 -86.98288364 89.18863673 -84 90 C-83.13487793 90.23638184 -82.26975586 90.47276367 -81.37841797 90.71630859 C-78.90150489 91.38694588 -76.42026166 92.03888586 -73.9375 92.6875 C-73.11701172 92.91244141 -72.29652344 93.13738281 -71.45117188 93.36914062 C-65.68338045 94.85979528 -59.95952096 95.7735293 -54 95 C-53.01 94.34 -52.02 93.68 -51 93 C-50.50513835 90.52926375 -50.50513835 90.52926375 -51 88 C-55.29370523 84.07171649 -60.11139486 81.34189194 -65.13769531 78.46899414 C-78.12314274 71.0311271 -90.8582082 62.15998804 -95 47 C-95.41843875 43.86187854 -95.47860218 40.78795626 -95.4375 37.625 C-95.42775146 36.78718994 -95.41800293 35.94937988 -95.40795898 35.08618164 C-95.10380339 24.47785326 -91.84300521 17.95496599 -84.5 10.26171875 C-61.74776969 -10.32193961 -27.43300485 -5.28829009 0 0 Z " fill="#313131" transform="translate(976,671)"/>
<path d="M0 0 C40.59 0 81.18 0 123 0 C123 13.86 123 27.72 123 42 C111.12 42 99.24 42 87 42 C87 71.37 87 100.74 87 131 C70.17 131 53.34 131 36 131 C36 101.63 36 72.26 36 42 C24.12 42 12.24 42 0 42 C0 28.14 0 14.28 0 0 Z " fill="#303030" transform="translate(989,671)"/>
<path d="M0 0 C16.83 0 33.66 0 51 0 C51 43.56 51 87.12 51 132 C34.17 132 17.34 132 0 132 C0 88.44 0 44.88 0 0 Z " fill="#333333" transform="translate(676,670)"/>
<path d="M0 0 C39.27 0 78.54 0 119 0 C111.60498398 7.39501602 103.84585507 14.17526331 95.71875 20.75 C93.07852271 22.93501569 90.5327028 25.19171391 88 27.5 C83.70276842 31.41646423 79.24700069 35.08763606 74.7265625 38.7421875 C71.27074321 41.60388313 67.96667885 44.61102071 64.6796875 47.6640625 C63.79539062 48.43492187 62.91109375 49.20578125 62 50 C61.43643799 50.59699707 60.87287598 51.19399414 60.29223633 51.80908203 C54.26861826 57.52054676 48.42472188 57.87964811 40.51367188 57.76171875 C39.76142334 57.73899902 39.0091748 57.7162793 38.23413086 57.69287109 C35.93812233 57.62501839 33.64653218 57.61086577 31.34960938 57.60546875 C22.11583059 57.51316169 13.951648 57.18696759 6.6875 50.75 C5.73423828 49.93789063 5.73423828 49.93789063 4.76171875 49.109375 C-6.14721875 36.04767599 0 13.56989126 0 0 Z " fill="#313131" transform="translate(315,772)"/>
<path d="M0 0 C1.22591354 -0.04988823 1.22591354 -0.04988823 2.47659302 -0.1007843 C30.57342531 -1.03865841 30.57342531 -1.03865841 37.79345703 4.69726562 C40.02779858 6.96604164 42.04689936 9.31942959 43.96484375 11.86083984 C46.42356626 14.90849284 49.44979406 17.24924606 52.47265625 19.71484375 C53.63279117 20.70270391 54.79036363 21.69358157 55.9453125 22.6875 C56.51652832 23.17621582 57.08774414 23.66493164 57.67626953 24.16845703 C59.42027011 25.66099935 61.16342729 27.15452002 62.90625 28.6484375 C63.48503906 29.14456543 64.06382812 29.64069336 64.66015625 30.15185547 C65.82049725 31.14675722 66.98065557 32.14187209 68.140625 33.13720703 C71.16390269 35.73065498 74.19167023 38.31858626 77.2265625 40.8984375 C77.85369141 41.43275391 78.48082031 41.96707031 79.12695312 42.51757812 C80.31818675 43.53233269 81.51079742 44.54547398 82.70507812 45.55664062 C83.24841797 46.02005859 83.79175781 46.48347656 84.3515625 46.9609375 C85.05841187 47.56119751 85.05841187 47.56119751 85.77954102 48.17358398 C88.0685682 50.2494393 90.22511383 52.46730133 92.41015625 54.65234375 C53.47015625 54.65234375 14.53015625 54.65234375 -25.58984375 54.65234375 C-25.58984375 13.38293736 -25.58984375 13.38293736 -19.87890625 6.62890625 C-19.32976562 6.18289063 -18.780625 5.736875 -18.21484375 5.27734375 C-17.67085938 4.81585937 -17.126875 4.354375 -16.56640625 3.87890625 C-11.37414085 0.65682851 -5.93846149 0.23800018 0 0 Z " fill="#303030" transform="translate(340.58984375,673.34765625)"/>
<path d="M0 0 C6.78348749 3.88716699 11.07273602 8.91050468 13.2109375 16.484375 C14.35768125 23.27829081 13.5891276 29.03028757 9.875 34.875 C5.85992931 40.22524859 1.23115214 44.25287104 -5.375 45.9375 C-12.51438565 46.8535718 -18.27621466 46.42803087 -24.40234375 42.4921875 C-29.37844956 38.5704249 -33.17626162 34.29081343 -34.375 27.9375 C-35.06070057 19.01092531 -34.28698685 12.48203479 -28.6875 5.25 C-21.00362137 -3.09142325 -10.33182706 -4.69911412 0 0 Z " fill="#FCFCFC" transform="translate(579.375,729.0625)"/>
<path d="M0 0 C3.16878239 1.67070044 5.37460234 3.74920468 7 7 C8.61854926 19.27785226 3.80910485 31.48517218 -3.0390625 41.48828125 C-12.89250457 54.10932358 -12.89250457 54.10932358 -21.0625 55.30078125 C-25.50351813 55.32764225 -28.53496355 55.06903229 -32 52 C-35.72627585 45.70387874 -36.08606708 39.40891517 -34.34375 32.3359375 C-30.33805837 20.35339443 -23.56622347 9.96929407 -14.25 1.5 C-9.4899789 -0.69693282 -5.15006707 -0.90928484 0 0 Z " fill="#FCFCFC" transform="translate(1512,707)"/>
<path d="M0 0 C5.61626265 2.81409339 8.23025872 6.80724542 10.40234375 12.671875 C12.10230992 20.88837816 11.25039777 26.96937623 7.15234375 34.296875 C1.4230641 42.22402486 -8.30763927 52.11686934 -17.84765625 55.296875 C-18.07618054 48.28660885 -18.23359033 41.27730459 -18.34204102 34.26416016 C-18.38725441 31.8796805 -18.44863896 29.49544972 -18.52661133 27.11181641 C-18.63602403 23.68069119 -18.68687173 20.25286588 -18.7265625 16.8203125 C-18.77301407 15.75759125 -18.81946564 14.69487 -18.86732483 13.59994507 C-18.8722377 6.36856643 -18.8722377 6.36856643 -15.91159058 3.27178955 C-10.71960475 -0.32235139 -6.27338017 -2.38733283 0 0 Z " fill="#FCFCFC" transform="translate(1355.84765625,705.703125)"/>
<path d="M0 0 C3.12277734 1.56138867 3.51327375 4.63783141 4.6015625 7.7734375 C4.8428891 8.45298492 5.0842157 9.13253235 5.33285522 9.83267212 C5.8422664 11.27230521 6.34807981 12.71321561 6.85058594 14.15527344 C7.62047904 16.36204144 8.40303575 18.56400047 9.1875 20.765625 C9.68044949 22.16379408 10.17266153 23.56222343 10.6640625 24.9609375 C10.89839996 25.62040375 11.13273743 26.27987 11.37417603 26.95932007 C12.35249958 29.78386235 13 31.98557804 13 35 C4.42 35 -4.16 35 -13 35 C-12.15844943 30.79224717 -11.09817873 27.41285186 -9.53125 23.45703125 C-9.29088013 22.84736008 -9.05051025 22.2376889 -8.80285645 21.60954285 C-8.03914864 19.6756211 -7.26955631 17.74410079 -6.5 15.8125 C-5.9827084 14.50339919 -5.46577764 13.19415573 -4.94921875 11.88476562 C-1.18910274 2.37820547 -1.18910274 2.37820547 0 0 Z " fill="#F4F4F4" transform="translate(1192,728)"/>
</svg>
